<svg id="Component_1_1" data-name="Component 1 – 1" xmlns="http://www.w3.org/2000/svg" width="27.865" height="28.269" viewBox="0 0 27.865 28.269">
  <path id="Vector" d="M12.628,18.3l-2.581,2.615a1.39,1.39,0,0,1-1.967.014c-.153-.155-.307-.3-.46-.452a40.029,40.029,0,0,1-3.893-4.622,25.284,25.284,0,0,1-2.735-4.82A12.269,12.269,0,0,1,0,6.417,7.4,7.4,0,0,1,.5,3.689a6.509,6.509,0,0,1,1.6-2.36A4.065,4.065,0,0,1,5.009,0,2.594,2.594,0,0,1,6.14.254a2.282,2.282,0,0,1,.935.792l3.237,4.622a4.854,4.854,0,0,1,.558.989,2.258,2.258,0,0,1,.2.862,1.937,1.937,0,0,1-.293,1,4.8,4.8,0,0,1-.781,1L8.93,10.643a.762.762,0,0,0-.223.565,1.3,1.3,0,0,0,.042.325c.042.113.084.2.112.283a11.726,11.726,0,0,0,1.3,1.809c.628.735,1.3,1.484,2.023,2.233.14.141.293.283.433.424a1.429,1.429,0,0,1,.014,2.021Z" fill="#23aa49"/>
  <path id="Vector-2" data-name="Vector" d="M17.261,6.064a3.631,3.631,0,0,1-.209,1.2,3.476,3.476,0,0,1-.14.339,5.838,5.838,0,0,1-.949,1.442,6.293,6.293,0,0,1-2.288,1.668c-.014,0-.028.014-.042.014a6.97,6.97,0,0,1-2.679.523A11.5,11.5,0,0,1,6.4,10.219a24.431,24.431,0,0,1-4.8-2.8C1.06,7.011.516,6.6,0,6.163L4.563,1.541A7.829,7.829,0,0,0,5.6,2.219c.07.028.153.071.251.113a.952.952,0,0,0,.349.057.763.763,0,0,0,.572-.24l1.06-1.06a4.288,4.288,0,0,1,1-.792A1.841,1.841,0,0,1,9.823,0a2.2,2.2,0,0,1,.851.184,5.377,5.377,0,0,1,.977.551L16.27,4.057a2.137,2.137,0,0,1,.767.9,2.932,2.932,0,0,1,.223,1.1Z" transform="translate(10.605 17.018)" fill="#23aa49"/>
</svg>
