<svg width="16" height="19" viewBox="0 0 16 19" fill="none" xmlns="http://www.w3.org/2000/svg">
<path d="M13.8333 5.00001H12.1667C12.1667 2.70001 10.3 0.833344 8 0.833344C5.7 0.833344 3.83333 2.70001 3.83333 5.00001H2.16667C1.25 5.00001 0.5 5.75001 0.5 6.66668V16.6667C0.5 17.5833 1.25 18.3333 2.16667 18.3333H13.8333C14.75 18.3333 15.5 17.5833 15.5 16.6667V6.66668C15.5 5.75001 14.75 5.00001 13.8333 5.00001ZM8 2.50001C9.38333 2.50001 10.5 3.61668 10.5 5.00001H5.5C5.5 3.61668 6.61667 2.50001 8 2.50001ZM8 10.8333C6.05833 10.8333 4.425 9.50834 3.96667 7.70834C3.825 7.18334 4.23333 6.66668 4.775 6.66668C5.16667 6.66668 5.48333 6.95001 5.59167 7.33334C5.88333 8.39168 6.85 9.16668 8 9.16668C9.15 9.16668 10.1167 8.39168 10.4083 7.33334C10.5167 6.95001 10.8333 6.66668 11.225 6.66668C11.7667 6.66668 12.1667 7.18334 12.0333 7.70834C11.575 9.50834 9.94167 10.8333 8 10.8333Z" fill="#121212"/>
</svg>
