<svg width="61" height="50" viewBox="0 0 61 50" fill="none" xmlns="http://www.w3.org/2000/svg">
<path d="M36.35 1.24154C28.2049 4.99027 1.69657 17.2663 1.14841 17.5477C0.265701 17.9895 -0.0688448 18.4712 0.0115689 19.1409C0.078478 19.7566 9.61456 40.5212 10.0424 40.9894C10.4703 41.4582 11.0724 41.605 11.6875 41.3912C11.9815 41.2843 19.0168 38.0579 27.3222 34.2022C35.641 30.3466 44.1476 26.4104 46.2341 25.4464C48.8552 24.2414 50.113 23.5852 50.2867 23.3444C50.8619 22.5812 50.8748 22.6482 45.619 11.2422C42.1686 3.77182 40.5769 0.478399 40.3498 0.304511C39.6402 -0.217767 39.3996 -0.16431 36.35 1.24154ZM42.8635 12.6075C45.1642 17.5876 47.0364 21.6841 47.0094 21.6976C46.9824 21.7247 14.0815 36.9463 12.7169 37.562L11.9011 37.9233L7.72822 28.9002C5.42814 23.9201 3.58231 19.8371 3.62221 19.7972C3.64921 19.7707 9.38683 17.093 16.3681 13.8665C23.3493 10.6401 31.2004 6.99889 33.8087 5.78045C36.4169 4.562 38.5831 3.57152 38.6237 3.558C38.6636 3.558 40.5763 7.62747 42.8635 12.6075Z" fill="white"/>
<path d="M23.4441 12.1928C20.9163 12.755 18.6291 14.5356 17.5058 16.798C16.7704 18.2973 16.5163 19.5827 16.5961 21.2159C16.8103 25.0445 19.3915 28.1775 23.1765 29.1815C24.2194 29.463 26.1457 29.463 27.3224 29.1815C29.7299 28.6328 31.9232 26.8921 32.9796 24.6967C33.2871 24.0675 33.6352 23.1975 33.742 22.7557C33.9961 21.7382 33.9961 19.7836 33.7285 18.6727C33.033 15.7006 30.6654 13.2238 27.6563 12.3267C26.587 12.0054 24.581 11.9384 23.4441 12.1928ZM23.3103 15.8075L23.578 16.3427L24.193 16.2223C25.0088 16.0619 25.7847 16.2893 26.3863 16.8515C26.9216 17.3738 26.9615 17.5612 26.5735 18.0564C26.2126 18.5117 25.905 18.4982 25.3434 18.0165C24.875 17.6017 24.1795 17.3338 24.1795 17.5747C24.1795 17.6417 24.3938 18.1639 24.6608 18.7261L25.142 19.7437L25.9848 19.6632C27.3359 19.5292 28.2051 19.9446 28.7533 20.9885C29.1142 21.6847 29.1277 22.7157 28.7932 23.3584C28.6594 23.6128 28.3119 24.0546 28.0173 24.3225L27.482 24.8178L27.7895 25.5274C28.0713 26.183 28.0713 26.223 27.8442 26.3969C27.5366 26.6248 27.296 26.4239 26.9615 25.6872L26.7208 25.125L26.1592 25.2589C25.0622 25.4998 23.7382 25.0316 23.2434 24.215C22.9089 23.6792 22.9089 23.4248 23.2434 23.0905C23.6449 22.6887 24.0058 22.7557 24.6743 23.3584C25.0886 23.7197 25.4097 23.8936 25.6638 23.8936C25.878 23.8936 26.0517 23.8402 26.0517 23.7732C26.0517 23.7197 25.8246 23.171 25.53 22.5683L25.0217 21.4703L23.8984 21.4438C22.9623 21.4168 22.7081 21.3633 22.3337 21.109C21.3172 20.3729 20.9961 18.7796 21.6652 17.7621C21.8659 17.4678 22.2134 17.1059 22.4411 16.9854C22.7088 16.8115 22.8156 16.6776 22.7622 16.5301C22.4546 15.8069 22.4012 15.6066 22.481 15.4057C22.6277 15.0309 23.0157 15.2183 23.3103 15.8075Z" fill="white"/>
<path d="M23.1495 18.0293C22.7885 18.4846 22.7081 18.779 22.8554 19.1943C23.0292 19.6761 23.3238 19.877 23.8984 19.877H24.2998L23.8855 18.9664C23.3901 17.8819 23.3232 17.8014 23.1495 18.0293Z" fill="white"/>
<path d="M25.9173 21.3348C25.9173 21.3883 26.1444 21.937 26.4256 22.5398L26.9338 23.6378L27.2279 23.3164C27.776 22.7272 27.5888 21.6027 26.9068 21.3484C26.4925 21.188 25.9173 21.1745 25.9173 21.3348Z" fill="white"/>
<path d="M53.6036 24.455C53.39 25.2452 52.9081 25.9543 52.2396 26.4366L51.6915 26.8385H57.081V46.9198H18.4284V44.5769C18.4284 43.2915 18.3885 42.234 18.3345 42.234C18.2676 42.2475 17.5991 42.5418 16.8232 42.8902L15.4187 43.5458L15.3788 46.1701C15.3518 48.352 15.3788 48.8608 15.5525 49.2092C15.9939 50.0528 14.6563 49.9993 37.7676 49.9993C60.9053 49.9993 59.4345 50.0528 59.9293 49.2092C60.1435 48.8479 60.157 47.8838 60.157 36.8121V24.8028L59.2473 23.8922H53.7503L53.6036 24.455Z" fill="white"/>
<path d="M41.8329 31.3364C40.8434 31.8052 39.9736 32.2065 39.8938 32.2335C39.8268 32.2605 39.9877 32.5413 40.2682 32.8357C40.6825 33.3045 40.763 33.4919 40.763 33.9736C40.763 34.6698 40.5892 34.8707 40.0006 34.8707C39.6126 34.8707 39.5322 34.8037 39.2247 34.2016C38.7434 33.2375 38.2216 33.0501 37.2321 33.4655C36.7374 33.6799 36.4433 34.0946 36.2825 34.8308L36.1886 35.2725H37.2855C38.1547 35.2725 38.3825 35.3125 38.4494 35.487C38.6231 35.9558 38.3156 36.1426 37.2321 36.1831L36.2156 36.2237V37.2818H37.3524C38.4494 37.2818 38.4893 37.2953 38.4893 37.5896C38.4893 38.0984 38.2351 38.2188 37.1922 38.2188C36.0959 38.2188 36.1088 38.2053 36.4163 39.2363C36.6705 40.1199 37.1388 40.5617 37.8073 40.5482C38.5562 40.5211 38.8502 40.3073 39.2787 39.4501C39.7869 38.4597 40.0006 38.2723 40.4689 38.4326C41.766 38.8879 40.8035 41.1638 39.0644 41.7525C38.3021 42.0204 37.1652 42.0339 36.5636 41.7795C35.4937 41.3377 34.5975 40.0929 34.3968 38.7939C34.3164 38.2452 34.29 38.2182 33.8621 38.2182C33.3275 38.2182 33.22 38.0707 33.4208 37.6296C33.5276 37.4022 33.6884 37.2812 33.902 37.2812C34.1696 37.2812 34.2095 37.2142 34.2095 36.7454C34.2095 36.2231 34.196 36.2102 33.7412 36.2102C33.4471 36.2102 33.2728 36.1432 33.2728 36.0363C33.2728 35.7149 33.6878 35.2732 33.9953 35.2732C34.196 35.2732 34.3427 35.1791 34.3833 35.0188C34.4502 34.7245 34.6773 34.644 31.1999 36.2501L29.06 37.2406L29.0999 37.7629C29.1668 38.7269 29.4209 39.6234 29.9562 40.7614C30.4111 41.6984 30.7051 42.1002 31.6547 43.0373C33.46 44.8315 35.2525 45.5811 37.7533 45.5811C39.2376 45.5811 40.2277 45.3402 41.6721 44.6305C45.6044 42.7024 47.4502 37.9638 45.8984 33.8132C45.5104 32.7822 44.7081 31.4974 44.0796 30.9081L43.6382 30.4928L41.8329 31.3364Z" fill="white"/>
</svg>
