<svg width="14" height="17" viewBox="0 0 14 17" fill="none" xmlns="http://www.w3.org/2000/svg">
<path d="M5.10001 0C4.9422 0 4.79086 0.0626873 4.67928 0.174271C4.56769 0.285856 4.505 0.437196 4.505 0.595V14.195C4.505 14.3528 4.56769 14.5041 4.67928 14.6157C4.79086 14.7273 4.9422 14.79 5.10001 14.79C5.25781 14.79 5.40915 14.7273 5.52073 14.6157C5.63232 14.5041 5.695 14.3528 5.695 14.195V7.99H13.005C13.1628 7.99 13.3141 7.92731 13.4257 7.81573C13.5373 7.70414 13.6 7.5528 13.6 7.395V0.595C13.6 0.437196 13.5373 0.285856 13.4257 0.174271C13.3141 0.0626873 13.1628 0 13.005 0H5.185C5.1706 4.36303e-05 5.15619 0.000610671 5.14182 0.0017C5.12791 0.000643061 5.11396 7.60436e-05 5.10001 0ZM7.446 1.19H9.11201V2.4531H10.778V1.19H12.41V2.4531H10.778V4.11893H12.41V5.78493H10.778V6.8H9.11201V5.7851H7.446V6.8H5.78V5.7851H7.446V4.11893H5.78V2.45293H7.446V1.19ZM7.446 2.45293V4.11893H9.11201V2.4531L7.446 2.45293ZM9.11201 4.11893V5.7851L10.778 5.78493V4.11893H9.11201Z" fill="#121212"/>
<path d="M3.06068 13.0546C1.2597 13.3093 0 13.9182 0 14.8143C0 16.0213 2.10477 17 5.1 17C8.09523 17 10.2 16.0215 10.2 14.8143C10.2 13.9181 8.9403 13.3093 7.13949 13.0548L6.88993 13.4796C8.24738 13.6678 9.18 14.0637 9.18 14.5229C9.18 15.1667 7.35335 15.6886 5.1 15.6886C2.84665 15.6886 1.02 15.1667 1.02 14.5229C1.01983 14.0653 1.9465 13.6699 3.30803 13.4808C3.22575 13.3387 3.14313 13.1969 3.06068 13.0546Z" fill="#121212"/>
</svg>
