<svg width="13" height="13" viewBox="0 0 13 13" fill="none" xmlns="http://www.w3.org/2000/svg">
<path d="M5.64292 9.53875C5.91917 9.815 6.36542 9.815 6.64167 9.53875L9.18458 6.99583C9.46083 6.71958 9.46083 6.27333 9.18458 5.99708L6.64167 3.45417C6.36542 3.17792 5.91917 3.17792 5.64292 3.45417C5.36667 3.73042 5.36667 4.17667 5.64292 4.45292L6.97458 5.79167H0.833333C0.44375 5.79167 0.125 6.11042 0.125 6.5C0.125 6.88958 0.44375 7.20833 0.833333 7.20833H6.97458L5.64292 8.54C5.36667 8.81625 5.37375 9.26958 5.64292 9.53875ZM11.4583 0.125H1.54167C0.755417 0.125 0.125 0.7625 0.125 1.54167V3.66667C0.125 4.05625 0.44375 4.375 0.833333 4.375C1.22292 4.375 1.54167 4.05625 1.54167 3.66667V2.25C1.54167 1.86042 1.86042 1.54167 2.25 1.54167H10.75C11.1396 1.54167 11.4583 1.86042 11.4583 2.25V10.75C11.4583 11.1396 11.1396 11.4583 10.75 11.4583H2.25C1.86042 11.4583 1.54167 11.1396 1.54167 10.75V9.33333C1.54167 8.94375 1.22292 8.625 0.833333 8.625C0.44375 8.625 0.125 8.94375 0.125 9.33333V11.4583C0.125 12.2375 0.7625 12.875 1.54167 12.875H11.4583C12.2375 12.875 12.875 12.2375 12.875 11.4583V1.54167C12.875 0.7625 12.2375 0.125 11.4583 0.125Z" fill="#121212"/>
</svg>
