<svg xmlns="http://www.w3.org/2000/svg" width="27.865" height="28.227" viewBox="0 0 27.865 28.227">
  <path id="Vector" d="M27.865,7.032v9.856A7,7,0,0,1,20.9,23.92h-2.09a1.406,1.406,0,0,0-1.115.565l-2.09,2.81a1.966,1.966,0,0,1-3.344,0l-2.09-2.81a1.594,1.594,0,0,0-1.115-.565H6.966A7,7,0,0,1,0,16.888V7.032A7,7,0,0,1,6.966,0H20.9a7,7,0,0,1,6.966,7.032ZM9.753,12.708A1.393,1.393,0,1,0,8.36,14.12,1.407,1.407,0,0,0,9.753,12.708Zm5.573,0a1.393,1.393,0,1,0-1.393,1.412A1.407,1.407,0,0,0,15.326,12.708Zm5.573,0a1.393,1.393,0,1,0-1.393,1.412A1.407,1.407,0,0,0,20.9,12.708Z" fill="#23aa49"/>
</svg>
